<mxfile host="app.diagrams.net" modified="2020-10-28T04:47:24.120Z" agent="5.0 (Windows NT 10.0; Win64; x64) AppleWebKit/537.36 (KHTML, like Gecko) Chrome/86.0.4240.111 Safari/537.36" etag="SCKSxYQOqUkpLdI_AoEP" version="13.8.5" type="github">
  <diagram id="R2lEEEUBdFMjLlhIrx00" name="Page-1">
    <mxGraphModel dx="2523" dy="868" grid="1" gridSize="10" guides="1" tooltips="1" connect="1" arrows="1" fold="1" page="1" pageScale="1" pageWidth="850" pageHeight="1100" math="0" shadow="0" extFonts="Permanent Marker^https://fonts.googleapis.com/css?family=Permanent+Marker">
      <root>
        <mxCell id="0" />
        <mxCell id="1" parent="0" />
        <mxCell id="D-uQkb0-rE8gWl50Enb3-1" value="MEMBER" style="shape=table;startSize=30;container=1;collapsible=1;childLayout=tableLayout;fixedRows=1;rowLines=0;fontStyle=1;align=center;resizeLast=1;" vertex="1" parent="1">
          <mxGeometry x="-120" y="380" width="180" height="190" as="geometry" />
        </mxCell>
        <mxCell id="D-uQkb0-rE8gWl50Enb3-2" value="" style="shape=partialRectangle;collapsible=0;dropTarget=0;pointerEvents=0;fillColor=none;top=0;left=0;bottom=1;right=0;points=[[0,0.5],[1,0.5]];portConstraint=eastwest;" vertex="1" parent="D-uQkb0-rE8gWl50Enb3-1">
          <mxGeometry y="30" width="180" height="30" as="geometry" />
        </mxCell>
        <mxCell id="D-uQkb0-rE8gWl50Enb3-3" value="PK" style="shape=partialRectangle;connectable=0;fillColor=none;top=0;left=0;bottom=0;right=0;fontStyle=1;overflow=hidden;" vertex="1" parent="D-uQkb0-rE8gWl50Enb3-2">
          <mxGeometry width="50" height="30" as="geometry" />
        </mxCell>
        <mxCell id="D-uQkb0-rE8gWl50Enb3-4" value="MEM_NUM" style="shape=partialRectangle;connectable=0;fillColor=none;top=0;left=0;bottom=0;right=0;align=left;spacingLeft=6;fontStyle=5;overflow=hidden;" vertex="1" parent="D-uQkb0-rE8gWl50Enb3-2">
          <mxGeometry x="50" width="130" height="30" as="geometry" />
        </mxCell>
        <mxCell id="D-uQkb0-rE8gWl50Enb3-5" value="" style="shape=partialRectangle;collapsible=0;dropTarget=0;pointerEvents=0;fillColor=none;top=0;left=0;bottom=0;right=0;points=[[0,0.5],[1,0.5]];portConstraint=eastwest;" vertex="1" parent="D-uQkb0-rE8gWl50Enb3-1">
          <mxGeometry y="60" width="180" height="30" as="geometry" />
        </mxCell>
        <mxCell id="D-uQkb0-rE8gWl50Enb3-6" value="" style="shape=partialRectangle;connectable=0;fillColor=none;top=0;left=0;bottom=0;right=0;editable=1;overflow=hidden;" vertex="1" parent="D-uQkb0-rE8gWl50Enb3-5">
          <mxGeometry width="50" height="30" as="geometry" />
        </mxCell>
        <mxCell id="D-uQkb0-rE8gWl50Enb3-7" value="MEM_NAME" style="shape=partialRectangle;connectable=0;fillColor=none;top=0;left=0;bottom=0;right=0;align=left;spacingLeft=6;overflow=hidden;" vertex="1" parent="D-uQkb0-rE8gWl50Enb3-5">
          <mxGeometry x="50" width="130" height="30" as="geometry" />
        </mxCell>
        <mxCell id="D-uQkb0-rE8gWl50Enb3-8" value="" style="shape=partialRectangle;collapsible=0;dropTarget=0;pointerEvents=0;fillColor=none;top=0;left=0;bottom=0;right=0;points=[[0,0.5],[1,0.5]];portConstraint=eastwest;" vertex="1" parent="D-uQkb0-rE8gWl50Enb3-1">
          <mxGeometry y="90" width="180" height="30" as="geometry" />
        </mxCell>
        <mxCell id="D-uQkb0-rE8gWl50Enb3-9" value="" style="shape=partialRectangle;connectable=0;fillColor=none;top=0;left=0;bottom=0;right=0;editable=1;overflow=hidden;" vertex="1" parent="D-uQkb0-rE8gWl50Enb3-8">
          <mxGeometry width="50" height="30" as="geometry" />
        </mxCell>
        <mxCell id="D-uQkb0-rE8gWl50Enb3-10" value="MEM_ADDRESS" style="shape=partialRectangle;connectable=0;fillColor=none;top=0;left=0;bottom=0;right=0;align=left;spacingLeft=6;overflow=hidden;" vertex="1" parent="D-uQkb0-rE8gWl50Enb3-8">
          <mxGeometry x="50" width="130" height="30" as="geometry" />
        </mxCell>
        <mxCell id="D-uQkb0-rE8gWl50Enb3-11" value="" style="shape=partialRectangle;collapsible=0;dropTarget=0;pointerEvents=0;fillColor=none;top=0;left=0;bottom=0;right=0;points=[[0,0.5],[1,0.5]];portConstraint=eastwest;" vertex="1" parent="D-uQkb0-rE8gWl50Enb3-1">
          <mxGeometry y="120" width="180" height="30" as="geometry" />
        </mxCell>
        <mxCell id="D-uQkb0-rE8gWl50Enb3-12" value="" style="shape=partialRectangle;connectable=0;fillColor=none;top=0;left=0;bottom=0;right=0;editable=1;overflow=hidden;" vertex="1" parent="D-uQkb0-rE8gWl50Enb3-11">
          <mxGeometry width="50" height="30" as="geometry" />
        </mxCell>
        <mxCell id="D-uQkb0-rE8gWl50Enb3-13" value="MEM_CITY" style="shape=partialRectangle;connectable=0;fillColor=none;top=0;left=0;bottom=0;right=0;align=left;spacingLeft=6;overflow=hidden;" vertex="1" parent="D-uQkb0-rE8gWl50Enb3-11">
          <mxGeometry x="50" width="130" height="30" as="geometry" />
        </mxCell>
        <mxCell id="D-uQkb0-rE8gWl50Enb3-14" value="MEM_ZIP" style="shape=partialRectangle;connectable=0;fillColor=none;top=0;left=0;bottom=0;right=0;align=left;spacingLeft=6;overflow=hidden;" vertex="1" parent="1">
          <mxGeometry x="-70" y="525" width="130" height="30" as="geometry" />
        </mxCell>
        <mxCell id="D-uQkb0-rE8gWl50Enb3-15" value="RECORD" style="shape=table;startSize=25;container=1;collapsible=1;childLayout=tableLayout;fixedRows=1;rowLines=0;fontStyle=1;align=center;resizeLast=1;" vertex="1" parent="1">
          <mxGeometry x="180" y="390" width="180" height="160" as="geometry" />
        </mxCell>
        <mxCell id="D-uQkb0-rE8gWl50Enb3-16" value="" style="shape=partialRectangle;collapsible=0;dropTarget=0;pointerEvents=0;fillColor=none;top=0;left=0;bottom=0;right=0;points=[[0,0.5],[1,0.5]];portConstraint=eastwest;" vertex="1" parent="D-uQkb0-rE8gWl50Enb3-15">
          <mxGeometry y="25" width="180" height="30" as="geometry" />
        </mxCell>
        <mxCell id="D-uQkb0-rE8gWl50Enb3-17" value="PK,FK1" style="shape=partialRectangle;connectable=0;fillColor=none;top=0;left=0;bottom=0;right=0;fontStyle=1;overflow=hidden;" vertex="1" parent="D-uQkb0-rE8gWl50Enb3-16">
          <mxGeometry width="60" height="30" as="geometry" />
        </mxCell>
        <mxCell id="D-uQkb0-rE8gWl50Enb3-18" value="MEM_NUM" style="shape=partialRectangle;connectable=0;fillColor=none;top=0;left=0;bottom=0;right=0;align=left;spacingLeft=6;fontStyle=5;overflow=hidden;" vertex="1" parent="D-uQkb0-rE8gWl50Enb3-16">
          <mxGeometry x="60" width="120" height="30" as="geometry" />
        </mxCell>
        <mxCell id="D-uQkb0-rE8gWl50Enb3-19" value="" style="shape=partialRectangle;collapsible=0;dropTarget=0;pointerEvents=0;fillColor=none;top=0;left=0;bottom=1;right=0;points=[[0,0.5],[1,0.5]];portConstraint=eastwest;" vertex="1" parent="D-uQkb0-rE8gWl50Enb3-15">
          <mxGeometry y="55" width="180" height="30" as="geometry" />
        </mxCell>
        <mxCell id="D-uQkb0-rE8gWl50Enb3-20" value="PK,FK2" style="shape=partialRectangle;connectable=0;fillColor=none;top=0;left=0;bottom=0;right=0;fontStyle=1;overflow=hidden;" vertex="1" parent="D-uQkb0-rE8gWl50Enb3-19">
          <mxGeometry width="60" height="30" as="geometry" />
        </mxCell>
        <mxCell id="D-uQkb0-rE8gWl50Enb3-21" value="INVITE_NUM" style="shape=partialRectangle;connectable=0;fillColor=none;top=0;left=0;bottom=0;right=0;align=left;spacingLeft=6;fontStyle=5;overflow=hidden;" vertex="1" parent="D-uQkb0-rE8gWl50Enb3-19">
          <mxGeometry x="60" width="120" height="30" as="geometry" />
        </mxCell>
        <mxCell id="D-uQkb0-rE8gWl50Enb3-22" value="" style="shape=partialRectangle;collapsible=0;dropTarget=0;pointerEvents=0;fillColor=none;top=0;left=0;bottom=0;right=0;points=[[0,0.5],[1,0.5]];portConstraint=eastwest;" vertex="1" parent="D-uQkb0-rE8gWl50Enb3-15">
          <mxGeometry y="85" width="180" height="30" as="geometry" />
        </mxCell>
        <mxCell id="D-uQkb0-rE8gWl50Enb3-23" value="" style="shape=partialRectangle;connectable=0;fillColor=none;top=0;left=0;bottom=0;right=0;editable=1;overflow=hidden;" vertex="1" parent="D-uQkb0-rE8gWl50Enb3-22">
          <mxGeometry width="60" height="30" as="geometry" />
        </mxCell>
        <mxCell id="D-uQkb0-rE8gWl50Enb3-24" value="ACCEPT_DATE" style="shape=partialRectangle;connectable=0;fillColor=none;top=0;left=0;bottom=0;right=0;align=left;spacingLeft=6;overflow=hidden;" vertex="1" parent="D-uQkb0-rE8gWl50Enb3-22">
          <mxGeometry x="60" width="120" height="30" as="geometry" />
        </mxCell>
        <mxCell id="D-uQkb0-rE8gWl50Enb3-25" value="" style="shape=partialRectangle;collapsible=0;dropTarget=0;pointerEvents=0;fillColor=none;top=0;left=0;bottom=0;right=0;points=[[0,0.5],[1,0.5]];portConstraint=eastwest;" vertex="1" parent="D-uQkb0-rE8gWl50Enb3-15">
          <mxGeometry y="115" width="180" height="30" as="geometry" />
        </mxCell>
        <mxCell id="D-uQkb0-rE8gWl50Enb3-26" value="" style="shape=partialRectangle;connectable=0;fillColor=none;top=0;left=0;bottom=0;right=0;editable=1;overflow=hidden;" vertex="1" parent="D-uQkb0-rE8gWl50Enb3-25">
          <mxGeometry width="60" height="30" as="geometry" />
        </mxCell>
        <mxCell id="D-uQkb0-rE8gWl50Enb3-27" value="DIN_ATTENDED" style="shape=partialRectangle;connectable=0;fillColor=none;top=0;left=0;bottom=0;right=0;align=left;spacingLeft=6;overflow=hidden;" vertex="1" parent="D-uQkb0-rE8gWl50Enb3-25">
          <mxGeometry x="60" width="120" height="30" as="geometry" />
        </mxCell>
        <mxCell id="D-uQkb0-rE8gWl50Enb3-28" value="INVITE" style="shape=table;startSize=30;container=1;collapsible=1;childLayout=tableLayout;fixedRows=1;rowLines=0;fontStyle=1;align=center;resizeLast=1;" vertex="1" parent="1">
          <mxGeometry x="460" y="380" width="180" height="210" as="geometry" />
        </mxCell>
        <mxCell id="D-uQkb0-rE8gWl50Enb3-29" value="" style="shape=partialRectangle;collapsible=0;dropTarget=0;pointerEvents=0;fillColor=none;top=0;left=0;bottom=1;right=0;points=[[0,0.5],[1,0.5]];portConstraint=eastwest;" vertex="1" parent="D-uQkb0-rE8gWl50Enb3-28">
          <mxGeometry y="30" width="180" height="30" as="geometry" />
        </mxCell>
        <mxCell id="D-uQkb0-rE8gWl50Enb3-30" value="PK" style="shape=partialRectangle;connectable=0;fillColor=none;top=0;left=0;bottom=0;right=0;fontStyle=1;overflow=hidden;" vertex="1" parent="D-uQkb0-rE8gWl50Enb3-29">
          <mxGeometry width="60" height="30" as="geometry" />
        </mxCell>
        <mxCell id="D-uQkb0-rE8gWl50Enb3-31" value="INVITE_NUM" style="shape=partialRectangle;connectable=0;fillColor=none;top=0;left=0;bottom=0;right=0;align=left;spacingLeft=6;fontStyle=5;overflow=hidden;" vertex="1" parent="D-uQkb0-rE8gWl50Enb3-29">
          <mxGeometry x="60" width="120" height="30" as="geometry" />
        </mxCell>
        <mxCell id="D-uQkb0-rE8gWl50Enb3-32" value="" style="shape=partialRectangle;collapsible=0;dropTarget=0;pointerEvents=0;fillColor=none;top=0;left=0;bottom=0;right=0;points=[[0,0.5],[1,0.5]];portConstraint=eastwest;" vertex="1" parent="D-uQkb0-rE8gWl50Enb3-28">
          <mxGeometry y="60" width="180" height="30" as="geometry" />
        </mxCell>
        <mxCell id="D-uQkb0-rE8gWl50Enb3-33" value="" style="shape=partialRectangle;connectable=0;fillColor=none;top=0;left=0;bottom=0;right=0;editable=1;overflow=hidden;" vertex="1" parent="D-uQkb0-rE8gWl50Enb3-32">
          <mxGeometry width="60" height="30" as="geometry" />
        </mxCell>
        <mxCell id="D-uQkb0-rE8gWl50Enb3-34" value="INVITE_DATE" style="shape=partialRectangle;connectable=0;fillColor=none;top=0;left=0;bottom=0;right=0;align=left;spacingLeft=6;overflow=hidden;" vertex="1" parent="D-uQkb0-rE8gWl50Enb3-32">
          <mxGeometry x="60" width="120" height="30" as="geometry" />
        </mxCell>
        <mxCell id="D-uQkb0-rE8gWl50Enb3-35" value="" style="shape=partialRectangle;collapsible=0;dropTarget=0;pointerEvents=0;fillColor=none;top=0;left=0;bottom=0;right=0;points=[[0,0.5],[1,0.5]];portConstraint=eastwest;" vertex="1" parent="D-uQkb0-rE8gWl50Enb3-28">
          <mxGeometry y="90" width="180" height="30" as="geometry" />
        </mxCell>
        <mxCell id="D-uQkb0-rE8gWl50Enb3-36" value="FK1" style="shape=partialRectangle;connectable=0;fillColor=none;top=0;left=0;bottom=0;right=0;editable=1;overflow=hidden;fontSize=13;" vertex="1" parent="D-uQkb0-rE8gWl50Enb3-35">
          <mxGeometry width="60" height="30" as="geometry" />
        </mxCell>
        <mxCell id="D-uQkb0-rE8gWl50Enb3-37" value="DIN_CODE" style="shape=partialRectangle;connectable=0;fillColor=none;top=0;left=0;bottom=0;right=0;align=left;spacingLeft=6;overflow=hidden;" vertex="1" parent="D-uQkb0-rE8gWl50Enb3-35">
          <mxGeometry x="60" width="120" height="30" as="geometry" />
        </mxCell>
        <mxCell id="D-uQkb0-rE8gWl50Enb3-38" value="" style="shape=partialRectangle;collapsible=0;dropTarget=0;pointerEvents=0;fillColor=none;top=0;left=0;bottom=0;right=0;points=[[0,0.5],[1,0.5]];portConstraint=eastwest;" vertex="1" parent="D-uQkb0-rE8gWl50Enb3-28">
          <mxGeometry y="120" width="180" height="30" as="geometry" />
        </mxCell>
        <mxCell id="D-uQkb0-rE8gWl50Enb3-39" value="FK2" style="shape=partialRectangle;connectable=0;fillColor=none;top=0;left=0;bottom=0;right=0;editable=1;overflow=hidden;fontSize=13;" vertex="1" parent="D-uQkb0-rE8gWl50Enb3-38">
          <mxGeometry width="60" height="30" as="geometry" />
        </mxCell>
        <mxCell id="D-uQkb0-rE8gWl50Enb3-40" value="ENTREE_CODE" style="shape=partialRectangle;connectable=0;fillColor=none;top=0;left=0;bottom=0;right=0;align=left;spacingLeft=6;overflow=hidden;" vertex="1" parent="D-uQkb0-rE8gWl50Enb3-38">
          <mxGeometry x="60" width="120" height="30" as="geometry" />
        </mxCell>
        <mxCell id="D-uQkb0-rE8gWl50Enb3-41" value="DESERT_CODE" style="shape=partialRectangle;connectable=0;fillColor=none;top=0;left=0;bottom=0;right=0;align=left;spacingLeft=6;overflow=hidden;" vertex="1" parent="1">
          <mxGeometry x="520" y="530" width="120" height="30" as="geometry" />
        </mxCell>
        <mxCell id="D-uQkb0-rE8gWl50Enb3-42" value="DINNER" style="shape=table;startSize=30;container=1;collapsible=1;childLayout=tableLayout;fixedRows=1;rowLines=0;fontStyle=1;align=center;resizeLast=1;" vertex="1" parent="1">
          <mxGeometry x="465" y="110" width="170" height="150" as="geometry" />
        </mxCell>
        <mxCell id="D-uQkb0-rE8gWl50Enb3-43" value="" style="shape=partialRectangle;collapsible=0;dropTarget=0;pointerEvents=0;fillColor=none;top=0;left=0;bottom=1;right=0;points=[[0,0.5],[1,0.5]];portConstraint=eastwest;" vertex="1" parent="D-uQkb0-rE8gWl50Enb3-42">
          <mxGeometry y="30" width="170" height="30" as="geometry" />
        </mxCell>
        <mxCell id="D-uQkb0-rE8gWl50Enb3-44" value="PK" style="shape=partialRectangle;connectable=0;fillColor=none;top=0;left=0;bottom=0;right=0;fontStyle=1;overflow=hidden;" vertex="1" parent="D-uQkb0-rE8gWl50Enb3-43">
          <mxGeometry width="30" height="30" as="geometry" />
        </mxCell>
        <mxCell id="D-uQkb0-rE8gWl50Enb3-45" value="DIN_CODE" style="shape=partialRectangle;connectable=0;fillColor=none;top=0;left=0;bottom=0;right=0;align=left;spacingLeft=6;fontStyle=5;overflow=hidden;" vertex="1" parent="D-uQkb0-rE8gWl50Enb3-43">
          <mxGeometry x="30" width="140" height="30" as="geometry" />
        </mxCell>
        <mxCell id="D-uQkb0-rE8gWl50Enb3-46" value="" style="shape=partialRectangle;collapsible=0;dropTarget=0;pointerEvents=0;fillColor=none;top=0;left=0;bottom=0;right=0;points=[[0,0.5],[1,0.5]];portConstraint=eastwest;" vertex="1" parent="D-uQkb0-rE8gWl50Enb3-42">
          <mxGeometry y="60" width="170" height="30" as="geometry" />
        </mxCell>
        <mxCell id="D-uQkb0-rE8gWl50Enb3-47" value="" style="shape=partialRectangle;connectable=0;fillColor=none;top=0;left=0;bottom=0;right=0;editable=1;overflow=hidden;" vertex="1" parent="D-uQkb0-rE8gWl50Enb3-46">
          <mxGeometry width="30" height="30" as="geometry" />
        </mxCell>
        <mxCell id="D-uQkb0-rE8gWl50Enb3-48" value="DIN_DESCRIPTION" style="shape=partialRectangle;connectable=0;fillColor=none;top=0;left=0;bottom=0;right=0;align=left;spacingLeft=6;overflow=hidden;" vertex="1" parent="D-uQkb0-rE8gWl50Enb3-46">
          <mxGeometry x="30" width="140" height="30" as="geometry" />
        </mxCell>
        <mxCell id="D-uQkb0-rE8gWl50Enb3-49" value="" style="shape=partialRectangle;collapsible=0;dropTarget=0;pointerEvents=0;fillColor=none;top=0;left=0;bottom=0;right=0;points=[[0,0.5],[1,0.5]];portConstraint=eastwest;" vertex="1" parent="D-uQkb0-rE8gWl50Enb3-42">
          <mxGeometry y="90" width="170" height="30" as="geometry" />
        </mxCell>
        <mxCell id="D-uQkb0-rE8gWl50Enb3-50" value="" style="shape=partialRectangle;connectable=0;fillColor=none;top=0;left=0;bottom=0;right=0;editable=1;overflow=hidden;" vertex="1" parent="D-uQkb0-rE8gWl50Enb3-49">
          <mxGeometry width="30" height="30" as="geometry" />
        </mxCell>
        <mxCell id="D-uQkb0-rE8gWl50Enb3-51" value="" style="shape=partialRectangle;connectable=0;fillColor=none;top=0;left=0;bottom=0;right=0;align=left;spacingLeft=6;overflow=hidden;" vertex="1" parent="D-uQkb0-rE8gWl50Enb3-49">
          <mxGeometry x="30" width="140" height="30" as="geometry" />
        </mxCell>
        <mxCell id="D-uQkb0-rE8gWl50Enb3-52" value="" style="shape=partialRectangle;collapsible=0;dropTarget=0;pointerEvents=0;fillColor=none;top=0;left=0;bottom=0;right=0;points=[[0,0.5],[1,0.5]];portConstraint=eastwest;" vertex="1" parent="D-uQkb0-rE8gWl50Enb3-42">
          <mxGeometry y="120" width="170" height="30" as="geometry" />
        </mxCell>
        <mxCell id="D-uQkb0-rE8gWl50Enb3-53" value="" style="shape=partialRectangle;connectable=0;fillColor=none;top=0;left=0;bottom=0;right=0;editable=1;overflow=hidden;" vertex="1" parent="D-uQkb0-rE8gWl50Enb3-52">
          <mxGeometry width="30" height="30" as="geometry" />
        </mxCell>
        <mxCell id="D-uQkb0-rE8gWl50Enb3-54" value="" style="shape=partialRectangle;connectable=0;fillColor=none;top=0;left=0;bottom=0;right=0;align=left;spacingLeft=6;overflow=hidden;" vertex="1" parent="D-uQkb0-rE8gWl50Enb3-52">
          <mxGeometry x="30" width="140" height="30" as="geometry" />
        </mxCell>
        <mxCell id="D-uQkb0-rE8gWl50Enb3-55" value="DESERT" style="shape=table;startSize=30;container=1;collapsible=1;childLayout=tableLayout;fixedRows=1;rowLines=0;fontStyle=1;align=center;resizeLast=1;" vertex="1" parent="1">
          <mxGeometry x="480" y="690" width="180" height="150.00000000000023" as="geometry" />
        </mxCell>
        <mxCell id="D-uQkb0-rE8gWl50Enb3-56" value="" style="shape=partialRectangle;collapsible=0;dropTarget=0;pointerEvents=0;fillColor=none;top=0;left=0;bottom=1;right=0;points=[[0,0.5],[1,0.5]];portConstraint=eastwest;" vertex="1" parent="D-uQkb0-rE8gWl50Enb3-55">
          <mxGeometry y="30" width="180" height="30" as="geometry" />
        </mxCell>
        <mxCell id="D-uQkb0-rE8gWl50Enb3-57" value="PK" style="shape=partialRectangle;connectable=0;fillColor=none;top=0;left=0;bottom=0;right=0;fontStyle=1;overflow=hidden;" vertex="1" parent="D-uQkb0-rE8gWl50Enb3-56">
          <mxGeometry width="30" height="30" as="geometry" />
        </mxCell>
        <mxCell id="D-uQkb0-rE8gWl50Enb3-58" value="DESERT_CODE" style="shape=partialRectangle;connectable=0;fillColor=none;top=0;left=0;bottom=0;right=0;align=left;spacingLeft=6;fontStyle=5;overflow=hidden;" vertex="1" parent="D-uQkb0-rE8gWl50Enb3-56">
          <mxGeometry x="30" width="150" height="30" as="geometry" />
        </mxCell>
        <mxCell id="D-uQkb0-rE8gWl50Enb3-59" value="" style="shape=partialRectangle;collapsible=0;dropTarget=0;pointerEvents=0;fillColor=none;top=0;left=0;bottom=0;right=0;points=[[0,0.5],[1,0.5]];portConstraint=eastwest;" vertex="1" parent="D-uQkb0-rE8gWl50Enb3-55">
          <mxGeometry y="60" width="180" height="30" as="geometry" />
        </mxCell>
        <mxCell id="D-uQkb0-rE8gWl50Enb3-60" value="" style="shape=partialRectangle;connectable=0;fillColor=none;top=0;left=0;bottom=0;right=0;editable=1;overflow=hidden;" vertex="1" parent="D-uQkb0-rE8gWl50Enb3-59">
          <mxGeometry width="30" height="30" as="geometry" />
        </mxCell>
        <mxCell id="D-uQkb0-rE8gWl50Enb3-61" value="DESERT_DESCRIPTION" style="shape=partialRectangle;connectable=0;fillColor=none;top=0;left=0;bottom=0;right=0;align=left;spacingLeft=6;overflow=hidden;" vertex="1" parent="D-uQkb0-rE8gWl50Enb3-59">
          <mxGeometry x="30" width="150" height="30" as="geometry" />
        </mxCell>
        <mxCell id="D-uQkb0-rE8gWl50Enb3-62" value="" style="shape=partialRectangle;collapsible=0;dropTarget=0;pointerEvents=0;fillColor=none;top=0;left=0;bottom=0;right=0;points=[[0,0.5],[1,0.5]];portConstraint=eastwest;" vertex="1" parent="D-uQkb0-rE8gWl50Enb3-55">
          <mxGeometry y="90" width="180" height="30" as="geometry" />
        </mxCell>
        <mxCell id="D-uQkb0-rE8gWl50Enb3-63" value="" style="shape=partialRectangle;connectable=0;fillColor=none;top=0;left=0;bottom=0;right=0;editable=1;overflow=hidden;" vertex="1" parent="D-uQkb0-rE8gWl50Enb3-62">
          <mxGeometry width="30" height="30" as="geometry" />
        </mxCell>
        <mxCell id="D-uQkb0-rE8gWl50Enb3-64" value="" style="shape=partialRectangle;connectable=0;fillColor=none;top=0;left=0;bottom=0;right=0;align=left;spacingLeft=6;overflow=hidden;" vertex="1" parent="D-uQkb0-rE8gWl50Enb3-62">
          <mxGeometry x="30" width="150" height="30" as="geometry" />
        </mxCell>
        <mxCell id="D-uQkb0-rE8gWl50Enb3-65" value="" style="shape=partialRectangle;collapsible=0;dropTarget=0;pointerEvents=0;fillColor=none;top=0;left=0;bottom=0;right=0;points=[[0,0.5],[1,0.5]];portConstraint=eastwest;" vertex="1" parent="D-uQkb0-rE8gWl50Enb3-55">
          <mxGeometry y="120" width="180" height="30" as="geometry" />
        </mxCell>
        <mxCell id="D-uQkb0-rE8gWl50Enb3-66" value="" style="shape=partialRectangle;connectable=0;fillColor=none;top=0;left=0;bottom=0;right=0;editable=1;overflow=hidden;" vertex="1" parent="D-uQkb0-rE8gWl50Enb3-65">
          <mxGeometry width="30" height="30" as="geometry" />
        </mxCell>
        <mxCell id="D-uQkb0-rE8gWl50Enb3-67" value="" style="shape=partialRectangle;connectable=0;fillColor=none;top=0;left=0;bottom=0;right=0;align=left;spacingLeft=6;overflow=hidden;" vertex="1" parent="D-uQkb0-rE8gWl50Enb3-65">
          <mxGeometry x="30" width="150" height="30" as="geometry" />
        </mxCell>
        <mxCell id="D-uQkb0-rE8gWl50Enb3-68" value="ENTREE" style="shape=table;startSize=30;container=1;collapsible=1;childLayout=tableLayout;fixedRows=1;rowLines=0;fontStyle=1;align=center;resizeLast=1;" vertex="1" parent="1">
          <mxGeometry x="760" y="425" width="180" height="145.00000000000023" as="geometry" />
        </mxCell>
        <mxCell id="D-uQkb0-rE8gWl50Enb3-69" value="" style="shape=partialRectangle;collapsible=0;dropTarget=0;pointerEvents=0;fillColor=none;top=0;left=0;bottom=1;right=0;points=[[0,0.5],[1,0.5]];portConstraint=eastwest;" vertex="1" parent="D-uQkb0-rE8gWl50Enb3-68">
          <mxGeometry y="30" width="180" height="30" as="geometry" />
        </mxCell>
        <mxCell id="D-uQkb0-rE8gWl50Enb3-70" value="PK" style="shape=partialRectangle;connectable=0;fillColor=none;top=0;left=0;bottom=0;right=0;fontStyle=1;overflow=hidden;" vertex="1" parent="D-uQkb0-rE8gWl50Enb3-69">
          <mxGeometry width="30" height="30" as="geometry" />
        </mxCell>
        <mxCell id="D-uQkb0-rE8gWl50Enb3-71" value="ENTREE_CODE" style="shape=partialRectangle;connectable=0;fillColor=none;top=0;left=0;bottom=0;right=0;align=left;spacingLeft=6;fontStyle=5;overflow=hidden;" vertex="1" parent="D-uQkb0-rE8gWl50Enb3-69">
          <mxGeometry x="30" width="150" height="30" as="geometry" />
        </mxCell>
        <mxCell id="D-uQkb0-rE8gWl50Enb3-72" value="" style="shape=partialRectangle;collapsible=0;dropTarget=0;pointerEvents=0;fillColor=none;top=0;left=0;bottom=0;right=0;points=[[0,0.5],[1,0.5]];portConstraint=eastwest;" vertex="1" parent="D-uQkb0-rE8gWl50Enb3-68">
          <mxGeometry y="60" width="180" height="25" as="geometry" />
        </mxCell>
        <mxCell id="D-uQkb0-rE8gWl50Enb3-73" value="" style="shape=partialRectangle;connectable=0;fillColor=none;top=0;left=0;bottom=0;right=0;editable=1;overflow=hidden;" vertex="1" parent="D-uQkb0-rE8gWl50Enb3-72">
          <mxGeometry width="30" height="25" as="geometry" />
        </mxCell>
        <mxCell id="D-uQkb0-rE8gWl50Enb3-74" value="ENTREE_DESCRIPTION" style="shape=partialRectangle;connectable=0;fillColor=none;top=0;left=0;bottom=0;right=0;align=left;spacingLeft=6;overflow=hidden;" vertex="1" parent="D-uQkb0-rE8gWl50Enb3-72">
          <mxGeometry x="30" width="150" height="25" as="geometry" />
        </mxCell>
        <mxCell id="D-uQkb0-rE8gWl50Enb3-75" value="" style="shape=partialRectangle;collapsible=0;dropTarget=0;pointerEvents=0;fillColor=none;top=0;left=0;bottom=0;right=0;points=[[0,0.5],[1,0.5]];portConstraint=eastwest;" vertex="1" parent="D-uQkb0-rE8gWl50Enb3-68">
          <mxGeometry y="85" width="180" height="30" as="geometry" />
        </mxCell>
        <mxCell id="D-uQkb0-rE8gWl50Enb3-76" value="" style="shape=partialRectangle;connectable=0;fillColor=none;top=0;left=0;bottom=0;right=0;editable=1;overflow=hidden;" vertex="1" parent="D-uQkb0-rE8gWl50Enb3-75">
          <mxGeometry width="30" height="30" as="geometry" />
        </mxCell>
        <mxCell id="D-uQkb0-rE8gWl50Enb3-77" value="" style="shape=partialRectangle;connectable=0;fillColor=none;top=0;left=0;bottom=0;right=0;align=left;spacingLeft=6;overflow=hidden;" vertex="1" parent="D-uQkb0-rE8gWl50Enb3-75">
          <mxGeometry x="30" width="150" height="30" as="geometry" />
        </mxCell>
        <mxCell id="D-uQkb0-rE8gWl50Enb3-78" value="" style="shape=partialRectangle;collapsible=0;dropTarget=0;pointerEvents=0;fillColor=none;top=0;left=0;bottom=0;right=0;points=[[0,0.5],[1,0.5]];portConstraint=eastwest;" vertex="1" parent="D-uQkb0-rE8gWl50Enb3-68">
          <mxGeometry y="115" width="180" height="30" as="geometry" />
        </mxCell>
        <mxCell id="D-uQkb0-rE8gWl50Enb3-79" value="" style="shape=partialRectangle;connectable=0;fillColor=none;top=0;left=0;bottom=0;right=0;editable=1;overflow=hidden;" vertex="1" parent="D-uQkb0-rE8gWl50Enb3-78">
          <mxGeometry width="30" height="30" as="geometry" />
        </mxCell>
        <mxCell id="D-uQkb0-rE8gWl50Enb3-80" value="" style="shape=partialRectangle;connectable=0;fillColor=none;top=0;left=0;bottom=0;right=0;align=left;spacingLeft=6;overflow=hidden;" vertex="1" parent="D-uQkb0-rE8gWl50Enb3-78">
          <mxGeometry x="30" width="150" height="30" as="geometry" />
        </mxCell>
        <mxCell id="D-uQkb0-rE8gWl50Enb3-81" value="" style="edgeStyle=entityRelationEdgeStyle;fontSize=12;html=1;endArrow=ERoneToMany;startArrow=ERmandOne;entryX=0;entryY=0.5;entryDx=0;entryDy=0;exitX=1;exitY=0.5;exitDx=0;exitDy=0;endFill=0;" edge="1" parent="1" source="D-uQkb0-rE8gWl50Enb3-8" target="D-uQkb0-rE8gWl50Enb3-22">
          <mxGeometry width="100" height="100" relative="1" as="geometry">
            <mxPoint x="50" y="655" as="sourcePoint" />
            <mxPoint x="150" y="555" as="targetPoint" />
          </mxGeometry>
        </mxCell>
        <mxCell id="D-uQkb0-rE8gWl50Enb3-82" value="list" style="edgeLabel;html=1;align=center;verticalAlign=middle;resizable=0;points=[];fontSize=14;" vertex="1" connectable="0" parent="D-uQkb0-rE8gWl50Enb3-81">
          <mxGeometry x="-0.1697" y="1" relative="1" as="geometry">
            <mxPoint x="1" as="offset" />
          </mxGeometry>
        </mxCell>
        <mxCell id="D-uQkb0-rE8gWl50Enb3-87" value="" style="edgeStyle=entityRelationEdgeStyle;fontSize=12;html=1;endArrow=ERoneToMany;startArrow=ERmandOne;entryX=1.003;entryY=0.249;entryDx=0;entryDy=0;exitX=0;exitY=0.5;exitDx=0;exitDy=0;endFill=0;entryPerimeter=0;" edge="1" parent="1" source="D-uQkb0-rE8gWl50Enb3-35" target="D-uQkb0-rE8gWl50Enb3-22">
          <mxGeometry width="100" height="100" relative="1" as="geometry">
            <mxPoint x="320.00000000000045" y="569.9999999999998" as="sourcePoint" />
            <mxPoint x="459.99999999999955" y="574.9999999999998" as="targetPoint" />
          </mxGeometry>
        </mxCell>
        <mxCell id="D-uQkb0-rE8gWl50Enb3-88" value="list" style="edgeLabel;html=1;align=center;verticalAlign=middle;resizable=0;points=[];fontSize=14;" vertex="1" connectable="0" parent="D-uQkb0-rE8gWl50Enb3-87">
          <mxGeometry x="-0.1697" y="1" relative="1" as="geometry">
            <mxPoint x="-6.95" y="-5.61" as="offset" />
          </mxGeometry>
        </mxCell>
        <mxCell id="D-uQkb0-rE8gWl50Enb3-89" value="" style="edgeStyle=orthogonalEdgeStyle;fontSize=12;html=1;endArrow=ERzeroToMany;startArrow=ERmandOne;entryX=0.5;entryY=0;entryDx=0;entryDy=0;exitX=0.512;exitY=0.984;exitDx=0;exitDy=0;exitPerimeter=0;dashed=1;" edge="1" parent="1" source="D-uQkb0-rE8gWl50Enb3-52" target="D-uQkb0-rE8gWl50Enb3-28">
          <mxGeometry width="100" height="100" relative="1" as="geometry">
            <mxPoint x="555" y="310" as="sourcePoint" />
            <mxPoint x="460" y="260" as="targetPoint" />
          </mxGeometry>
        </mxCell>
        <mxCell id="D-uQkb0-rE8gWl50Enb3-90" value="provided" style="edgeLabel;html=1;align=center;verticalAlign=middle;resizable=0;points=[];fontSize=14;" vertex="1" connectable="0" parent="D-uQkb0-rE8gWl50Enb3-89">
          <mxGeometry x="-0.2225" y="3" relative="1" as="geometry">
            <mxPoint x="-5.06" y="12.25" as="offset" />
          </mxGeometry>
        </mxCell>
        <mxCell id="D-uQkb0-rE8gWl50Enb3-91" value="" style="fontSize=12;html=1;endArrow=ERzeroToMany;startArrow=ERmandOne;entryX=1;entryY=0;entryDx=0;entryDy=0;dashed=1;exitX=0;exitY=0.5;exitDx=0;exitDy=0;entryPerimeter=0;" edge="1" parent="1" source="D-uQkb0-rE8gWl50Enb3-72" target="D-uQkb0-rE8gWl50Enb3-38">
          <mxGeometry width="100" height="100" relative="1" as="geometry">
            <mxPoint x="780" y="300" as="sourcePoint" />
            <mxPoint x="717.9399999999996" y="569.9999999999998" as="targetPoint" />
          </mxGeometry>
        </mxCell>
        <mxCell id="D-uQkb0-rE8gWl50Enb3-92" value="provided" style="edgeLabel;html=1;align=center;verticalAlign=middle;resizable=0;points=[];fontSize=14;" vertex="1" connectable="0" parent="D-uQkb0-rE8gWl50Enb3-91">
          <mxGeometry x="-0.2225" y="3" relative="1" as="geometry">
            <mxPoint x="-5.06" y="12.25" as="offset" />
          </mxGeometry>
        </mxCell>
        <mxCell id="D-uQkb0-rE8gWl50Enb3-95" value="&lt;font style=&quot;font-size: 13px&quot;&gt;provided&lt;/font&gt;" style="edgeStyle=orthogonalEdgeStyle;fontSize=12;html=1;endArrow=ERzeroToMany;startArrow=ERmandOne;dashed=1;exitX=0.5;exitY=0;exitDx=0;exitDy=0;" edge="1" parent="1" source="D-uQkb0-rE8gWl50Enb3-55">
          <mxGeometry width="100" height="100" relative="1" as="geometry">
            <mxPoint x="760" y="760" as="sourcePoint" />
            <mxPoint x="570" y="590" as="targetPoint" />
          </mxGeometry>
        </mxCell>
        <mxCell id="D-uQkb0-rE8gWl50Enb3-96" value="FK3" style="text;html=1;align=center;verticalAlign=middle;resizable=0;points=[];autosize=1;fontSize=14;" vertex="1" parent="1">
          <mxGeometry x="470" y="530" width="40" height="20" as="geometry" />
        </mxCell>
      </root>
    </mxGraphModel>
  </diagram>
</mxfile>
